<?xml version="1.0" encoding="UTF-8" standalone="no"?>
<svg
   xmlns:dc="http://purl.org/dc/elements/1.1/"
   xmlns:cc="http://creativecommons.org/ns#"
   xmlns:rdf="http://www.w3.org/1999/02/22-rdf-syntax-ns#"
   xmlns:svg="http://www.w3.org/2000/svg"
   xmlns="http://www.w3.org/2000/svg"
   xmlns:sodipodi="http://sodipodi.sourceforge.net/DTD/sodipodi-0.dtd"
   xmlns:inkscape="http://www.inkscape.org/namespaces/inkscape"
   id="svg8"
   version="1.1"
   viewBox="0 0 89.174454 135.13727"
   height="135.13727mm"
   width="89.174454mm"
   sodipodi:docname="logo2.svg"
   inkscape:version="0.92.1 r15371"
   inkscape:export-filename="/home/user/logo2.svg.png"
   inkscape:export-xdpi="96"
   inkscape:export-ydpi="96">
  <sodipodi:namedview
     pagecolor="#ffffff"
     bordercolor="#666666"
     borderopacity="1"
     objecttolerance="10"
     gridtolerance="10"
     guidetolerance="10"
     inkscape:pageopacity="0"
     inkscape:pageshadow="2"
     inkscape:window-width="1440"
     inkscape:window-height="845"
     id="namedview35"
     showgrid="false"
     inkscape:zoom="0.92412208"
     inkscape:cx="128.23281"
     inkscape:cy="194.35546"
     inkscape:window-x="0"
     inkscape:window-y="31"
     inkscape:window-maximized="1"
     inkscape:current-layer="svg8" />
  <defs
     id="defs2" />
  <metadata
     id="metadata5">
    <rdf:RDF>
      <cc:Work
         rdf:about="">
        <dc:format>image/svg+xml</dc:format>
        <dc:type
           rdf:resource="http://purl.org/dc/dcmitype/StillImage" />
        <dc:title></dc:title>
      </cc:Work>
    </rdf:RDF>
  </metadata>
  <flowRoot
     xml:space="preserve"
     id="flowRoot4569"
     style="fill:black;fill-opacity:1;stroke:none;font-family:sans-serif;font-style:normal;font-weight:normal;font-size:40px;line-height:1.25;letter-spacing:0px;word-spacing:0px"><flowRegion
       id="flowRegion4571"><rect
         id="rect4573"
         width="120.114"
         height="473.96335"
         x="60.598053"
         y="19.477945" /></flowRegion><flowPara
       id="flowPara4575" /></flowRoot>  <g
     id="g4607">
    <g
       inkscape:export-ydpi="96"
       inkscape:export-xdpi="96"
       transform="translate(-61.071087,-82.990556)"
       style="fill:#b7c8be;fill-opacity:1;stroke:#b7c8be;stroke-opacity:1;opacity:1"
       id="g4767">
      <path
         style="fill:#b7c8be;fill-opacity:1;stroke:#b7c8be;stroke-width:1;stroke-linecap:butt;stroke-linejoin:miter;stroke-miterlimit:4;stroke-dasharray:none;stroke-opacity:1"
         d="m 106.50691,83.986186 -6.949013,9.354434 -6.949006,2.271791 -10.289876,22.851549 -3.608139,-4.67722 -8.819894,22.58427 -0.400905,8.55263 9.488068,13.22984 5.479026,24.05426 7.750816,6.1472 1.870887,15.10073 12.695306,3.60813 6.81537,9.88898 11.35895,-42.36222 11.09169,4.40994 -0.80181,-24.9897 6.94901,-18.04069 -11.35896,-20.57975 -7.88445,-10.28988 -4.27631,7.21628 z"
         id="path212"
         inkscape:connector-curvature="0" />
      <path
         style="fill:#b7c8be;fill-opacity:1;stroke:#b7c8be;stroke-width:1;stroke-linecap:butt;stroke-linejoin:miter;stroke-miterlimit:4;stroke-dasharray:none;stroke-opacity:1"
         d="m 61.071087,136.37101 h 8.819893 80.35456"
         id="path4695"
         inkscape:connector-curvature="0" />
    </g>
    <g
       transform="translate(10.28987,-91.275911)"
       style="fill:#ffffff;fill-opacity:1;stroke:none"
       id="g4977">
      <path
         style="fill:#ffffff;fill-opacity:1;stroke:none;stroke-width:0.26458332px;stroke-linecap:butt;stroke-linejoin:miter;stroke-opacity:1"
         d="m -0.302979,144.19334 42.281217,0.24226 2.82707,-6.06453 -8.96957,-16.5487 v -12.49484 l -1.63501,-14.60764 -5.49824,7.3762 -6.92538,2.33084 -4.08229,9.26043 -2.03794,19.89489 -8.084903,-10.17779 z"
         id="path4951"
         inkscape:connector-curvature="0" />
      <path
         style="fill:#ffffff;fill-opacity:1;stroke:none;stroke-width:0.26458332px;stroke-linecap:butt;stroke-linejoin:miter;stroke-opacity:1"
         d="m 51.603198,114.80129 -3.80338,6.40197 3.44903,7.03981 z"
         id="path4966"
         inkscape:connector-curvature="0" />
    </g>
    <g
       id="text4585"
       style="font-style:normal;font-weight:normal;font-size:10.58333397px;line-height:0.80000001;font-family:sans-serif;letter-spacing:0px;word-spacing:0px;opacity:0.6;fill:#536c5d;fill-opacity:1;stroke:none;stroke-width:0.26458335"
       aria-label="C
H
A
N">
      <path
         d="m 34.094581,105.20455 -2.0955,11.29241 -4.734278,-14.35805 c -0.271639,-0.81492 -0.6985,-1.12536 -1.591028,-1.12536 h -3.453694 c -1.823862,0 -2.794001,0.89252 -2.794001,2.48355 0,1.08656 0.6985,1.70745 1.629834,1.70745 h 0.504472 l -2.871611,14.08641 h -0.582083 c -1.280584,0 -2.289528,1.00895 -2.289528,2.48356 0,1.16417 0.582083,1.70744 1.823861,1.70744 h 5.005917 c 1.823861,0 2.794,-0.89252 2.794,-2.44475 0,-1.16416 -0.659695,-1.74625 -1.940278,-1.74625 h -0.620889 l 2.0955,-11.44764 4.967111,14.86253 c 0.34925,1.00895 0.737306,1.08656 1.707445,1.08656 h 1.707445 c 0.892527,0 1.164166,-0.31045 1.358194,-1.28058 l 3.608917,-17.30728 c 1.74625,-0.0776 2.638778,-0.89253 2.638778,-2.44475 0,-1.16417 -0.582084,-1.74625 -1.823861,-1.74625 h -4.81189 c -1.823861,0 -2.794,0.93133 -2.794,2.48355 0,1.20297 0.659695,1.70745 2.0955,1.70745 z m -8.382,-23.011699 4.307417,-8.30439 1.164166,8.30439 z M 25.867803,74.1601 18.067886,88.246518 h -0.6985 c -1.280583,0 -2.328334,1.008944 -2.328334,2.483555 0,1.164167 0.620889,1.707445 1.862667,1.707445 h 5.005917 c 1.823861,0 2.794,-0.892528 2.794,-2.44475 0,-1.164167 -0.659694,-1.74625 -1.940278,-1.74625 h -0.194027 l 1.125361,-2.095501 h 7.993945 l 0.271638,2.095501 h -0.931333 c -1.668639,0 -2.677583,0.931333 -2.677583,2.483555 0,1.164167 0.620889,1.707445 1.862666,1.707445 h 5.51039 c 1.823861,0 2.794,-0.892528 2.794,-2.483556 0,-1.086556 -0.659695,-1.707444 -1.591028,-1.707444 H 36.500526 L 33.978164,71.210878 C 33.861748,70.31835 33.396081,69.9691 32.464748,69.9691 h -7.25664 c -1.823861,0 -2.794,0.892528 -2.794,2.483556 0,1.086555 0.6985,1.707444 1.629834,1.707444 z m 6.868584,-31.044446 -0.892528,4.462639 h -5.743223 l 0.931334,-4.462639 c 1.74625,-0.07761 2.677583,-0.892528 2.677583,-2.44475 0,-1.164167 -0.620889,-1.74625 -1.862667,-1.74625 h -4.967111 c -1.823861,0 -2.794,0.892528 -2.794,2.483555 0,1.086556 0.6985,1.707445 1.629833,1.707445 h 0.504473 l -2.910417,14.086417 h -0.543278 c -1.280583,0 -2.328333,1.008945 -2.328333,2.483556 0,1.164167 0.620888,1.707444 1.862666,1.707444 h 5.005917 c 1.823861,0 2.794,-0.892527 2.794,-2.44475 0,-1.164166 -0.620889,-1.74625 -1.940278,-1.74625 l 1.086556,-5.626806 h 5.743223 l -1.125362,5.626806 c -1.74625,0.03881 -2.638778,0.931334 -2.638778,2.483556 0,1.164167 0.582084,1.707444 1.823862,1.707444 h 4.8895 c 1.823861,0 2.794,-0.892527 2.794,-2.483555 0,-1.086556 -0.659694,-1.707445 -1.591028,-1.707445 H 34.71547 l 2.871611,-14.086417 c 1.74625,-0.07761 2.677584,-0.892528 2.677584,-2.44475 0,-1.164167 -0.620889,-1.74625 -1.862667,-1.74625 h -4.773084 c -1.823861,0 -2.794,0.931333 -2.794,2.483555 0,1.164167 0.582084,1.668639 1.901473,1.707445 z M 36.616942,8.5010965 C 35.025914,7.6861797 33.396081,7.2593186 31.57222,7.2593186 c -4.074584,0 -7.256639,1.4746112 -9.817806,4.5790554 -2.289528,2.755195 -3.764139,6.829778 -3.764139,10.593918 0,5.122333 3.220861,8.498417 8.576028,8.498417 6.053667,0 10.710334,-2.988028 10.710334,-5.122334 0,-0.931333 -0.659695,-1.629833 -1.552222,-1.629833 -1.746251,0 -4.152195,2.638777 -7.644695,2.638777 -3.104445,0 -4.773084,-1.862666 -4.773084,-5.122333 0,-5.393973 3.647723,-10.244667 7.838723,-10.244667 2.405944,0 3.84175,1.202972 3.84175,3.104444 0,0.116417 0,0.271639 0,0.388056 0,1.397 0.426861,1.668639 1.785056,1.668639 1.086555,0 1.668639,-0.582083 1.940277,-1.785056 l 1.125362,-5.3163611 c 0.116416,-0.5044722 0.155222,-0.8537222 0.155222,-1.0089444 0,-0.8537223 -0.465667,-1.2029723 -1.397,-1.2029723 -0.892528,0 -1.397,0.3104444 -1.979084,1.2029723 z"
         style="font-style:italic;font-variant:normal;font-weight:bold;font-stretch:normal;font-size:38.80555725px;line-height:0.80000001;font-family:'Courier 10 Pitch';-inkscape-font-specification:'Courier 10 Pitch Bold Italic';fill:#536c5d;stroke-width:0.26458335"
         id="path4564" />
    </g>
    <g
       id="text4585-7"
       style="font-style:normal;font-weight:normal;font-size:10.58333397px;line-height:0.80000001;font-family:sans-serif;letter-spacing:0px;word-spacing:0px;opacity:0.6;fill:#536c5d;fill-opacity:1;stroke:none;stroke-width:0.26458335"
       aria-label="N
A
N
O">
      <path
         d="m 60.222751,119.75644 c -3.104445,0 -5.23875,-2.67758 -5.23875,-7.48947 0,-4.81189 2.056694,-7.45067 5.23875,-7.45067 3.14325,0 5.23875,2.59997 5.23875,7.45067 0,4.85069 -2.0955,7.48947 -5.23875,7.48947 z m 10.671528,-7.48947 c 0,-6.90739 -4.462639,-11.8357 -10.671528,-11.8357 -6.2865,0 -10.710334,4.8895 -10.710334,11.8357 0,6.94619 4.579056,11.83569 10.710334,11.83569 6.208889,0 10.671528,-4.8895 10.671528,-11.83569 z m -6.2865,-27.629559 -7.217834,-13.155084 c -0.776111,-1.435805 -1.164166,-1.474611 -2.250722,-1.474611 -0.03881,0 -0.07761,0 -0.155222,0 h -3.104445 c -1.552222,0 -2.328333,0.582084 -2.328333,2.0955 0,1.358195 0.737305,2.0955 2.056694,2.0955 0.07761,0 0.194028,0 0.271639,0 v 14.125223 c -0.116416,0 -0.194028,0 -0.310444,0 -1.280584,0 -2.017889,0.737306 -2.017889,2.056695 0,1.552222 0.776111,2.0955 2.328333,2.0955 h 5.393973 c 1.552222,0 2.328333,-0.543278 2.328333,-2.0955 0,-1.552222 -0.776111,-2.056695 -2.328333,-2.056695 h -1.04775 V 78.040467 l 7.877528,13.853584 c 0.465666,0.814916 1.008944,0.853722 1.901472,0.853722 h 1.901472 c 0.931334,0 1.04775,-0.232834 1.04775,-1.358195 V 74.198716 c 0.07761,0 0.194028,0 0.271639,0 1.319389,0 2.056695,-0.737305 2.056695,-2.0955 0,-1.552222 -0.776111,-2.0955 -2.328334,-2.0955 h -5.393972 c -1.552222,0 -2.328333,0.543278 -2.328333,2.0955 0,1.552223 0.776111,2.0955 2.328333,2.0955 h 1.04775 z m -9.662584,-27.357918 0.814917,-2.211917 h 8.187973 l 0.776111,2.211917 h -0.659695 c -1.591028,0 -2.405944,0.465667 -2.405944,2.056695 0,1.591027 0.814916,2.0955 2.405944,2.0955 h 5.704417 c 1.591028,0 2.405945,-0.504473 2.405945,-2.0955 0,-1.358195 -0.737306,-2.056695 -2.0955,-2.056695 -0.07761,0 -0.194028,0 -0.310445,0 L 63.754057,40.825937 c -0.504473,-1.397 -0.659695,-1.862667 -2.367139,-1.862667 h -7.101417 c -1.629834,0 -2.405945,0.543278 -2.405945,2.0955 0,1.591028 0.776111,2.0955 2.367139,2.0955 h 1.552222 l -5.083528,14.125223 c -0.116416,0 -0.232833,0 -0.310444,0 -1.358194,0 -2.0955,0.6985 -2.0955,2.056695 0,1.591027 0.814917,2.0955 2.405944,2.0955 h 4.889501 c 1.591028,0 2.405944,-0.504473 2.405944,-2.0955 0,-1.591028 -0.814916,-2.056695 -2.405944,-2.056695 z m 2.134306,-6.131278 2.755194,-7.993945 2.755195,7.993945 z M 64.607779,22.548519 57.389945,9.3934349 C 56.613834,7.9576293 56.225779,7.9188237 55.139223,7.9188237 c -0.03881,0 -0.07761,0 -0.155222,0 h -3.104445 c -1.552222,0 -2.328333,0.5820834 -2.328333,2.0955003 0,1.358194 0.737305,2.0955 2.056694,2.0955 0.07761,0 0.194028,0 0.271639,0 v 14.125223 c -0.116416,0 -0.194028,0 -0.310444,0 -1.280584,0 -2.017889,0.737305 -2.017889,2.056694 0,1.552223 0.776111,2.0955 2.328333,2.0955 h 5.393973 c 1.552222,0 2.328333,-0.543277 2.328333,-2.0955 0,-1.552222 -0.776111,-2.056694 -2.328333,-2.056694 h -1.04775 V 15.951574 l 7.877528,13.853584 c 0.465666,0.814917 1.008944,0.853722 1.901472,0.853722 h 1.901472 c 0.931334,0 1.04775,-0.232833 1.04775,-1.358194 V 12.109824 c 0.07761,0 0.194028,0 0.271639,0 1.319389,0 2.056695,-0.737306 2.056695,-2.0955 0,-1.5522225 -0.776111,-2.0955003 -2.328334,-2.0955003 h -5.393972 c -1.552222,0 -2.328333,0.5432778 -2.328333,2.0955003 0,1.552222 0.776111,2.0955 2.328333,2.0955 h 1.04775 z"
         style="font-style:normal;font-variant:normal;font-weight:bold;font-stretch:normal;font-size:38.80555725px;line-height:0.80000001;font-family:'Courier 10 Pitch';-inkscape-font-specification:'Courier 10 Pitch Bold Italic';fill:#536c5d;stroke-width:0.26458335"
         id="path4574" />
    </g>
  </g>
</svg>
