<?xml version="1.0" encoding="UTF-8"?>
<svg xmlns="http://www.w3.org/2000/svg" width="89.174mm" height="135.14mm" viewBox="0 0 89.174454 135.13727">
  <g fill="#ccd4da" stroke="#ccd4da">
    <path d="M45.436.996l-6.949 9.354-6.949 2.272-10.29 22.852-3.608-4.677L8.82 53.38l-.4 8.552 9.487 13.23 5.48 24.054 7.75 6.147 1.87 15.101 12.696 3.609 6.815 9.889L63.878 91.6l11.091 4.41-.802-24.99 6.95-18.042-11.36-20.58-7.884-10.29-4.276 7.217zM0 53.38h89.174" />
  </g>
  <g fill="#fff">
    <path d="M9.987 52.914l42.281.242 2.827-6.064-8.97-16.55V18.049L44.492 3.44l-5.499 7.376-6.925 2.33-4.082 9.261-2.038 19.895-8.085-10.178zM61.893 23.524l-3.803 6.402 3.449 7.04z" />
  </g>
  <g fill="#5e737c" font-family="'Courier New'" font-size="38.806px" font-weight="bold" letter-spacing="0px" stroke-width=".26458" word-spacing="0px">
    <text x="16.748497" y="30.348625" font-style="italic" opacity=".75" style="line-height:.8">
      <tspan x="16.748497" y="30.348625" style="line-height:.8">C</tspan>
      <tspan x="16.748497" y="61.393105" style="line-height:.8">H</tspan>
      <tspan x="16.748497" y="92.437584" style="line-height:.8">A</tspan>
      <tspan x="16.748497" y="123.48206" style="line-height:.8">N</tspan>
    </text>
    <text x="48.542278" y="30.387241" opacity=".75" style="line-height:.8">
      <tspan x="48.542278" y="30.387241" style="line-height:.8">P</tspan>
      <tspan x="48.542278" y="61.431721" style="line-height:.8">I</tspan>
      <tspan x="48.542278" y="92.476204" style="line-height:.8">C</tspan>
      <tspan x="48.542278" y="123.52068" style="line-height:.8">O</tspan>
    </text>
  </g>
</svg>
